<svg xmlns="http://www.w3.org/2000/svg" class="svg-icon" style="width: 1em; height: 1em;vertical-align: middle;fill: currentColor;overflow: hidden;" viewBox="0 0 1024 1024" version="1.1"><path d="M512 0C230.4 0 0 230.4 0 512s230.4 512 512 512 512-230.4 512-512S793.6 0 512 0zM416 313.6l326.4 0 0 64L416 377.6 416 313.6zM358.4 710.4l-64 0 0-64 64 0L358.4 710.4zM358.4 544l-64 0 0-64 64 0L358.4 544zM358.4 377.6l-64 0 0-64 64 0 0 0L358.4 377.6zM742.4 710.4 416 710.4l0-64 326.4 0L742.4 710.4zM742.4 544 416 544l0-64 326.4 0L742.4 544z" fill="#22d3ff"/></svg>